<svg width="6459" height="6459" viewBox="0 0 6459 6459" fill="none" xmlns="http://www.w3.org/2000/svg">
<rect width="6459" height="6459" fill="white"/>
<path d="M2379.06 2528.63C2379.06 2528.63 2099.17 3669.72 1259.5 3777.37C1259.5 3777.37 1636.28 4383.79 1496.33 4724.69C1496.33 4724.69 1420.98 5381.34 2142.23 5693.52C3126.61 6119.62 4187.58 5736.58 4510.53 5413.63C4833.48 5090.68 5070.31 4703.16 4639.71 3519.01C4639.71 3519.01 3584.74 3497.48 3649.33 2464.04C3649.33 2464.04 3304.85 3368.3 4359.82 3691.25C4359.82 3691.25 3089.55 3928.08 3175.67 2033.44C3175.67 2033.44 2788.13 2464.04 2680.48 2119.56C2680.48 2119.56 2572.83 3475.95 2163.76 3540.54C2163.76 3540.54 2443.65 3196.06 2379.06 2528.63Z" stroke="#040000" stroke-width="100" stroke-miterlimit="10"/>
<path d="M2379.06 5144.51C2379.06 5144.51 3304.85 5499.75 3961.52 4864.62" stroke="#040000" stroke-width="100" stroke-miterlimit="10"/>
<path d="M3907.7 4724.69C3907.7 4724.69 3950.76 5026.09 4144.53 5004.56" stroke="#040000" stroke-width="100" stroke-miterlimit="10"/>
<path d="M1664.1 3899.75C1664.1 3899.75 2119.39 3783.25 2448.16 3956.93C2448.16 3956.93 2394.48 4167.95 2258.48 4121.81C2122.47 4075.65 2111.81 3966.39 2131.13 3881.79" stroke="#040000" stroke-width="100" stroke-miterlimit="10"/>
<path d="M4459.35 3848.49C4459.35 3848.49 4001.66 3741.68 3676.67 3922.33C3676.67 3922.33 3734.82 4132.12 3869.81 4083.14C4004.83 4034.14 4013.16 3924.66 3992.04 3840.48" stroke="#040000" stroke-width="100" stroke-miterlimit="10"/>
<path d="M1496.33 4762.37C958.076 4590.13 1137.49 4139.79 1137.49 4139.79C1313.32 3870.66 1395.85 4042.92 1395.85 4042.92C1266.67 3870.68 1130.32 4164.91 1130.32 4164.91C-139.954 1516.72 2938.84 935.414 2938.84 935.414C2938.84 935.414 2946.01 698.605 2730.71 626.824C2730.71 626.824 3089.55 468.945 3118.25 770.365C3118.25 770.365 3362.27 583.764 3434.03 756.004C3434.03 756.004 3190.03 928.244 3390.97 956.944C3390.97 956.944 4912.41 1086.1 5299.95 1947.3C5299.95 1947.3 5070.28 1775.06 4998.53 1803.76C4998.53 1803.76 5759.27 2306.12 5615.73 3109.92C5615.73 3109.92 5572.69 3655.34 5285.61 3913.7C5285.61 3913.7 5036.2 3576.41 4806.56 4035.73C4806.56 4035.73 5059.54 3605.13 5264.08 3874.26C5468.61 4143.38 5086.45 4541.69 4881.92 4530.92" stroke="#040000" stroke-width="100" stroke-miterlimit="10"/>
<path d="M3681.63 3190.68L3864.63 3158.39" stroke="#040000" stroke-width="100" stroke-miterlimit="10"/>
<path d="M2056.12 3244.51L2298.33 3249.89" stroke="#040000" stroke-width="100" stroke-miterlimit="10"/>
<path d="M2438.27 3276.8C2438.27 3276.8 2664.34 3309.1 2680.49 3330.63Z" fill="white"/>
<path d="M2438.27 3276.8C2438.27 3276.8 2664.34 3309.1 2680.49 3330.63" stroke="#040000" stroke-width="100" stroke-miterlimit="10"/>
<path d="M3401.74 3260.65C3401.74 3260.65 3315.62 3287.57 3245.65 3330.63Z" fill="white"/>
<path d="M3401.74 3260.65C3401.74 3260.65 3315.62 3287.57 3245.65 3330.63" stroke="#040000" stroke-width="100" stroke-miterlimit="10"/>
</svg>
